# cube.obj
#
 
g cube
 
v  0.0  0.0  0.0
v  0.0  0.0  1.0
v  0.0  1.0  0.0
v  0.0  1.0  1.0
v  1.0  0.0  0.0
v  1.0  0.0  1.0
v  1.0  1.0  0.0
v  1.0  1.0  1.0

vn  0.0  0.0  1.0
vn  0.0  0.0 -1.0
vn  0.0  1.0  0.0
vn  0.0 -1.0  0.0
vn  1.0  0.0  0.0
vn -1.0  0.0  0.0

vt  0.0	 0.0
vt  1.0  0.0
vt  1.0  1.0
vt  0.0  1.0
 
f  1/1/2  7/3/2  5/4/2
f  1/1/2  3/2/2  7/3/2 
f  1/1/6  4/3/6  3/4/6 
f  1/1/6  2/2/6  4/3/6 
f  3/2/3  8/4/3  7/1/3 
f  3/2/3  4/3/3  8/4/3 
f  5/1/5  7/2/5  8/3/5 
f  5/1/5  8/3/5  6/4/5 
f  1/2/4  5/3/4  6/4/4 
f  1/2/4  6/4/4  2/1/4 
f  2/2/1  6/3/1  8/4/1 
f  2/2/1  8/4/1  4/1/1