# This file uses centimeters as units for non-parametric coordinates.

mtllib hangar.mtl
g default
v 451.752197 245.163727 -250.457809
v 384.283386 281.784637 -250.457809
v 279.198151 317.901123 -250.457809
v 146.783142 349.005127 -250.457809
v 0.000000 366.837219 -250.457809
v -146.783142 349.005066 -250.457809
v -279.198090 317.901001 -250.457809
v -384.283173 281.784546 -250.457809
v -451.751953 245.163666 -250.457809
v -485.268555 167.840485 -256.360260
v 485.268463 167.840485 -256.360260
v 451.752197 245.163757 231.688385
v 384.283386 281.784668 231.688385
v 279.198151 317.901123 231.688385
v 146.783142 349.005127 231.688385
v 0.000000 366.837250 231.688385
v -146.783142 349.005127 231.688385
v -279.198090 317.901062 231.688385
v -384.283173 281.784576 231.688385
v -451.751953 245.163727 240.713760
v -485.268555 167.840561 243.882538
v 485.268463 167.840561 243.882507
v 0.000000 167.840485 -256.360260
v 0.000000 167.840561 243.882507
v -485.268555 167.840561 243.882538
v 0.000000 167.840561 243.882538
v 0.000000 167.840561 243.882538
v 477.989044 0.161072 -256.360321
v -477.989075 0.161072 -256.360291
v -477.989075 0.161072 239.639832
v 477.989014 0.161072 239.639771
v 477.989044 167.838928 -256.360321
v -477.989075 167.838928 -256.360291
v -477.989075 167.838928 243.882477
v 477.989014 167.838928 243.882507
v 481.628540 167.837769 -260.000366
v -481.628876 167.837296 -260.000458
v 485.268494 167.838928 -263.639771
v -485.268555 167.838928 -263.639771
v -485.268524 167.838928 243.882477
v 485.268616 167.838928 243.882507
v 485.268494 0.161072 -263.639771
v -485.268555 0.161072 -263.639771
v -485.268555 0.161072 239.639832
v 485.268616 0.161072 239.639771
v 475.528564 249.233368 -263.639801
v 404.508759 287.781677 -263.639801
v 293.892792 325.799011 -263.639801
v 154.508575 358.540100 -263.639801
v 0.000000 372.253296 -263.639801
v -154.508575 358.540070 -263.639801
v -293.892731 325.798950 -263.639801
v -404.508606 287.781616 -263.639801
v -475.528381 249.233307 -263.639801
v -485.268555 167.840485 -263.639801
v 485.268494 167.840485 -263.639801
v 475.528564 249.233414 243.882523
v 404.508759 287.781738 243.882523
v 293.892792 325.799072 243.882523
v 154.508575 358.540100 243.882523
v 0.000000 372.253326 243.882492
v -154.508575 358.540100 243.882523
v -293.892731 325.798981 243.882523
v -404.508606 287.781647 243.882523
v -475.528381 249.233353 243.882523
v -485.268555 167.840530 243.882523
v 485.268494 167.840530 243.882523
v 0.000000 167.840485 -263.639801
v 0.000000 167.840530 243.882523
vt 0.375000 0.312500
vt 0.375000 0.688440
vt 0.387500 0.312500
vt 0.387500 0.688440
vt 0.400000 0.312500
vt 0.400000 0.688440
vt 0.412500 0.312500
vt 0.412500 0.688440
vt 0.425000 0.312500
vt 0.425000 0.688440
vt 0.437500 0.312500
vt 0.437500 0.688440
vt 0.450000 0.312500
vt 0.450000 0.688440
vt 0.462500 0.312500
vt 0.462500 0.688440
vt 0.475000 0.312500
vt 0.475000 0.688440
vt 0.487500 0.688440
vt 0.487500 0.312500
vt 0.612500 0.312500
vt 0.612500 0.688440
vt 0.625000 0.312500
vt 0.625000 0.688440
vt 0.626409 0.064408
vt 0.500000 0.150000
vt 0.648603 0.107966
vt 0.591842 0.029841
vt 0.548284 0.007647
vt 0.500000 -0.000000
vt 0.451716 0.007647
vt 0.408159 0.029841
vt 0.373591 0.064409
vt 0.351397 0.107966
vt 0.343750 0.156250
vt 0.656250 0.156250
vt 0.648603 0.892034
vt 0.500000 0.837500
vt 0.626409 0.935591
vt 0.591841 0.970159
vt 0.548284 0.992353
vt 0.500000 1.000000
vt 0.451716 0.992353
vt 0.408159 0.970159
vt 0.373591 0.935591
vt 0.351397 0.892034
vt 0.343750 0.843750
vt 0.656250 0.843750
vt 0.000000 1.000000
vt 0.000000 0.000000
vt 1.000000 1.000000
vt 1.000000 0.000000
vt 0.000000 0.000000
vt 1.000000 0.000000
vt 0.000000 1.000000
vt 0.250000 1.000000
vt 0.000000 1.000000
vt 0.250000 0.833333
vt 0.000000 0.833333
vt 0.500000 1.000000
vt 0.500000 0.833333
vt 1.000000 1.000000
vt 0.750000 1.000000
vt 1.000000 0.833333
vt 0.750000 0.833333
vt 0.250000 0.666667
vt 0.000000 0.666667
vt 0.250000 0.500000
vt 0.000000 0.500000
vt 0.500000 0.500000
vt 0.250000 0.333333
vt 0.000000 0.333333
vt 0.500000 0.333333
vt 1.000000 0.500000
vt 0.750000 0.500000
vt 1.000000 0.333333
vt 0.750000 0.333333
vt 0.750000 -0.000000
vt 0.375000 0.312500
vt 0.387500 0.312500
vt 0.375000 0.688440
vt 0.387500 0.688440
vt 0.400000 0.312500
vt 0.400000 0.688440
vt 0.412500 0.312500
vt 0.412500 0.688440
vt 0.425000 0.312500
vt 0.425000 0.688440
vt 0.437500 0.312500
vt 0.437500 0.688440
vt 0.450000 0.312500
vt 0.450000 0.688440
vt 0.462500 0.312500
vt 0.462500 0.688440
vt 0.475000 0.312500
vt 0.475000 0.688440
vt 0.487500 0.312500
vt 0.487500 0.688440
vt 0.612500 0.312500
vt 0.625000 0.312500
vt 0.612500 0.688440
vt 0.625000 0.688440
vt 0.626409 0.064408
vt 0.648603 0.107966
vt 0.500000 0.150000
vt 0.591842 0.029841
vt 0.548284 0.007647
vt 0.500000 -0.000000
vt 0.451716 0.007647
vt 0.408159 0.029841
vt 0.373591 0.064409
vt 0.351397 0.107966
vt 0.343750 0.156250
vt 0.656250 0.156250
vt 0.648603 0.892034
vt 0.626409 0.935591
vt 0.500000 0.837500
vt 0.591841 0.970159
vt 0.548284 0.992353
vt 0.500000 1.000000
vt 0.451716 0.992353
vt 0.408159 0.970159
vt 0.373591 0.935591
vt 0.351397 0.892034
vt 0.343750 0.843750
vt 0.656250 0.843750
vn -0.757047 -0.653360 0.000000
vn -0.758260 -0.651953 0.000000
vn -0.388434 -0.921477 0.000000
vn -0.388434 -0.921477 0.000000
vn -0.272335 -0.962202 0.000000
vn -0.272335 -0.962202 0.000000
vn -0.172642 -0.984985 0.000000
vn -0.172642 -0.984985 0.000000
vn 0.000000 -1.000000 0.000000
vn 0.000000 -1.000000 0.000000
vn 0.172642 -0.984985 0.000000
vn 0.172642 -0.984985 0.000000
vn 0.272336 -0.962202 0.000000
vn 0.272336 -0.962202 0.000000
vn 0.388434 -0.921477 0.000000
vn 0.391746 -0.920073 0.000000
vn 0.757043 -0.653365 0.000000
vn 0.759764 -0.650199 0.000000
vn 0.917513 -0.397706 0.000000
vn 0.917513 -0.397706 0.000000
vn -0.917515 -0.397702 0.000000
vn -0.917514 -0.397703 0.000000
vn -0.009529 -0.019651 0.999762
vn -0.000000 -0.034312 0.999411
vn -0.001746 -0.065967 0.997820
vn -0.007777 -0.024851 0.999661
vn -0.005471 -0.028135 0.999589
vn -0.000000 -0.029648 0.999560
vn 0.005471 -0.028135 0.999589
vn 0.007777 -0.024851 0.999661
vn 0.009529 -0.019651 0.999762
vn 0.001746 -0.065967 0.997820
vn 0.000000 -0.076113 0.997099
vn 0.000000 -0.076113 0.997099
vn -0.003592 -0.135270 -0.990802
vn -0.001354 -0.067254 -0.997735
vn -0.019671 -0.040568 -0.998983
vn -0.016049 -0.051285 -0.998555
vn -0.011286 -0.058048 -0.998250
vn 0.000000 -0.061163 -0.998128
vn 0.011286 -0.058048 -0.998250
vn 0.016048 -0.051285 -0.998555
vn -0.016060 -0.159794 -0.987020
vn -0.004754 -0.068657 -0.997629
vn -0.000000 -0.040947 -0.999161
vn 0.000000 -0.155778 -0.987792
vn 0.000000 0.000000 0.000000
vn 0.000000 -0.000000 0.000000
vn 0.000000 -1.000000 0.000000
vn 0.000000 -1.000000 0.000000
vn 0.000000 -1.000000 0.000000
vn 0.000000 -0.000000 0.000000
vn 0.000000 -1.000000 0.000000
vn 0.000000 0.000000 1.000000
vn 0.000000 0.000000 1.000000
vn 0.000000 0.000000 1.000000
vn 0.000000 0.000000 1.000000
vn 1.000000 -0.000000 0.000000
vn 1.000000 -0.000000 0.000000
vn 1.000000 -0.000000 0.000000
vn 1.000000 0.000000 0.000000
vn -1.000000 0.000000 -0.000000
vn -1.000000 0.000000 -0.000000
vn -1.000000 0.000000 -0.000000
vn -1.000000 0.000000 -0.000000
vn -0.000000 1.000000 -0.000453
vn -0.000000 1.000000 -0.000312
vn 0.000127 1.000000 0.000159
vn -0.000000 1.000000 0.000162
vn 0.000154 1.000000 0.000291
vn 0.000000 1.000000 0.000319
vn 0.000449 1.000000 0.000000
vn 0.000000 0.000000 -1.000000
vn 0.000000 0.000000 -1.000000
vn 0.000000 0.000000 -1.000000
vn 0.000000 0.000000 -1.000000
vn -1.000000 -0.000000 0.000000
vn -1.000000 -0.000000 0.000000
vn -1.000000 -0.000000 0.000000
vn -1.000000 0.000000 0.000000
vn 1.000000 0.000000 -0.000000
vn 1.000000 -0.000000 -0.000000
vn 1.000000 -0.000000 -0.000000
vn 1.000000 -0.000000 -0.000000
vn 0.000000 -0.025294 0.999680
vn 0.000000 -0.025294 0.999680
vn 0.000000 -0.025294 0.999680
vn 0.000000 -0.025294 0.999680
vn 0.000000 -0.025295 0.999680
vn 0.000000 -0.025295 0.999680
vn 0.000000 -0.025295 0.999680
vn 0.000000 -0.025295 0.999680
vn -0.000449 1.000000 0.000000
vn -0.000432 1.000000 -0.000000
vn -0.000001 1.000000 -0.000003
vn 0.000000 1.000000 -0.000003
vn 0.000000 -1.000000 0.000000
vn 0.000000 -1.000000 0.000000
vn 0.000000 -1.000000 0.000000
vn 0.000000 -1.000000 0.000000
vn 0.000000 -1.000000 0.000000
vn 0.000000 -1.000000 0.000000
vn 0.000000 -1.000000 0.000000
vn 0.000000 -1.000000 0.000000
vn -0.000319 1.000000 0.000000
vn -0.000159 1.000000 -0.000001
vn -0.000000 1.000000 -0.000000
vn 0.000310 1.000000 -0.000005
vn 0.000000 1.000000 0.000000
vn 0.829492 0.558519 -0.000000
vn 0.388434 0.921477 -0.000000
vn 0.829491 0.558520 -0.000000
vn 0.388434 0.921477 -0.000000
vn 0.272335 0.962202 -0.000000
vn 0.272335 0.962202 -0.000000
vn 0.156127 0.987737 -0.000000
vn 0.156127 0.987737 -0.000000
vn -0.000000 1.000000 -0.000000
vn 0.000000 1.000000 -0.000000
vn -0.156127 0.987737 -0.000000
vn -0.156127 0.987737 -0.000000
vn -0.272336 0.962202 -0.000000
vn -0.272336 0.962202 -0.000000
vn -0.388434 0.921477 -0.000000
vn -0.388434 0.921477 -0.000000
vn -0.829491 0.558521 -0.000000
vn -0.829491 0.558521 -0.000000
vn -0.992916 0.118821 -0.000000
vn -0.992916 0.118821 -0.000000
vn 0.992916 0.118818 -0.000000
vn 0.992916 0.118818 -0.000000
vn -0.000000 0.000000 -1.000000
vn -0.000000 0.000000 -1.000000
vn -0.000000 0.000000 -1.000000
vn -0.000000 0.000000 -1.000000
vn -0.000000 0.000000 -1.000000
vn 0.000000 0.000000 -1.000000
vn 0.000000 0.000000 -1.000000
vn 0.000000 0.000000 -1.000000
vn 0.000000 0.000000 -1.000000
vn 0.000000 0.000000 -1.000000
vn 0.000000 0.000000 -1.000000
vn 0.000000 0.000000 -1.000000
vn 0.000000 0.000000 1.000000
vn 0.000000 0.000000 1.000000
vn 0.000000 0.000000 1.000000
vn 0.000000 0.000000 1.000000
vn -0.000000 0.000000 1.000000
vn 0.000000 0.000000 1.000000
vn 0.000000 0.000000 1.000000
vn 0.000000 0.000000 1.000000
vn 0.000000 0.000000 1.000000
vn 0.000000 0.000000 1.000000
vn 0.000000 0.000000 1.000000
vn 0.000000 0.000000 1.000000
s 1
g polySurface3
usemtl initialShadingGroup
f 1/1/1 12/2/2 2/3/3
f 2/3/3 12/2/2 13/4/4
f 2/3/3 13/4/4 3/5/5
f 3/5/5 13/4/4 14/6/6
f 3/5/5 14/6/6 4/7/7
f 4/7/7 14/6/6 15/8/8
f 4/7/7 15/8/8 5/9/9
f 5/9/9 15/8/8 16/10/10
f 5/9/9 16/10/10 6/11/11
f 6/11/11 16/10/10 17/12/12
f 6/11/11 17/12/12 7/13/13
f 7/13/13 17/12/12 18/14/14
f 7/13/13 18/14/14 8/15/15
f 8/15/15 18/14/14 19/16/16
f 8/15/15 19/16/16 9/17/17
f 9/17/17 19/16/16 20/18/18
f 20/18/18 21/19/19 9/17/17
f 9/17/17 21/19/19 10/20/20
f 11/21/21 22/22/22 1/23/1
f 1/23/1 22/22/22 12/24/2
s 2
f 2/25/23 23/26/24 1/27/25
f 3/28/26 23/26/24 2/25/23
f 4/29/27 23/26/24 3/28/26
f 5/30/28 23/26/24 4/29/27
f 6/31/29 23/26/24 5/30/28
f 7/32/30 23/26/24 6/31/29
f 8/33/31 23/26/24 7/32/30
f 9/34/32 23/26/24 8/33/31
f 10/35/33 23/26/24 9/34/32
f 1/27/25 23/26/24 11/36/34
s 3
f 12/37/35 24/38/36 13/39/37
f 13/39/37 24/38/36 14/40/38
f 14/40/38 24/38/36 15/41/39
f 15/41/39 24/38/36 16/42/40
f 16/42/40 24/38/36 17/43/41
f 17/43/41 24/38/36 18/44/42
f 18/44/42 24/38/36 19/45/43
f 19/45/43 24/38/36 20/46/44
f 20/46/44 24/38/36 21/47/45
f 22/48/46 24/38/36 12/37/35
s 4
f 25/49/47 21/50/48 26/51/49
f 21/50/48 24/52/50 26/51/49
s off
f 24/53/51 22/54/52 27/55/53
s 5
usemtl phong2SG
f 29/56/54 28/57/55 33/58/56
f 33/58/56 28/57/55 32/59/57
s 6
f 30/60/58 29/56/59 34/61/60
f 34/61/60 29/56/59 33/58/61
s 7
f 28/62/62 31/63/63 32/64/64
f 32/64/64 31/63/63 35/65/65
s 8
f 33/58/66 32/59/67 37/66/68
f 37/66/68 32/59/67 36/67/69
f 37/66/68 36/67/69 39/68/70
f 39/68/70 36/67/69 38/69/71
f 40/70/72 37/66/68 39/68/70
s 9
f 39/68/73 38/69/74 43/71/75
f 43/71/75 38/69/74 42/72/76
s 10
f 40/70/77 39/68/78 44/73/79
f 44/73/79 39/68/78 43/71/80
s 11
f 38/74/81 41/75/82 42/76/83
f 42/76/83 41/75/82 45/77/84
s 12
f 40/70/85 44/73/86 34/61/87
f 34/61/87 44/73/86 30/60/88
s 13
f 31/78/89 45/77/90 35/65/91
f 35/65/91 45/77/90 41/75/92
s 14
f 33/58/93 37/66/94 34/61/95
f 34/61/95 37/66/94 40/70/96
s 15
f 30/60/97 44/73/98 29/56/99
f 44/73/98 43/71/100 29/56/99
f 43/71/100 42/76/101 29/56/99
f 29/56/99 42/76/101 28/57/102
f 42/76/101 45/77/103 28/57/102
f 45/77/103 31/63/104 28/57/102
s 16
f 38/69/105 36/67/106 41/75/107
f 36/67/106 32/64/108 41/75/107
f 32/64/108 35/65/109 41/75/107
s 17
usemtl blinn2SG
f 46/79/110 47/80/111 57/81/112
f 57/81/112 47/80/111 58/82/113
f 47/80/111 48/83/114 58/82/113
f 58/82/113 48/83/114 59/84/115
f 48/83/114 49/85/116 59/84/115
f 59/84/115 49/85/116 60/86/117
f 49/85/116 50/87/118 60/86/117
f 60/86/117 50/87/118 61/88/119
f 50/87/118 51/89/120 61/88/119
f 61/88/119 51/89/120 62/90/121
f 51/89/120 52/91/122 62/90/121
f 62/90/121 52/91/122 63/92/123
f 52/91/122 53/93/124 63/92/123
f 63/92/123 53/93/124 64/94/125
f 53/93/124 54/95/126 64/94/125
f 64/94/125 54/95/126 65/96/127
f 54/95/126 55/97/128 65/96/127
f 65/96/127 55/97/128 66/98/129
f 56/99/130 46/100/110 67/101/131
f 67/101/131 46/100/110 57/102/112
s 18
f 47/103/132 46/104/133 68/105/134
f 48/106/135 47/103/132 68/105/134
f 49/107/136 48/106/135 68/105/134
f 50/108/137 49/107/136 68/105/134
f 51/109/138 50/108/137 68/105/134
f 52/110/139 51/109/138 68/105/134
f 53/111/140 52/110/139 68/105/134
f 54/112/141 53/111/140 68/105/134
f 55/113/142 54/112/141 68/105/134
f 46/104/133 56/114/143 68/105/134
s 19
f 57/115/144 58/116/145 69/117/146
f 58/116/145 59/118/147 69/117/146
f 59/118/147 60/119/148 69/117/146
f 60/119/148 61/120/149 69/117/146
f 61/120/149 62/121/150 69/117/146
f 62/121/150 63/122/151 69/117/146
f 63/122/151 64/123/152 69/117/146
f 64/123/152 65/124/153 69/117/146
f 65/124/153 66/125/154 69/117/146
f 67/126/155 57/115/144 69/117/146
