# This file uses centimeters as units for non-parametric coordinates.

mtllib runway.mtl
g default
v -324.000000 0.000000 25.000000
v 332.000000 0.000000 25.000000
v -324.000000 0.000000 -25.000000
v 332.000000 0.000000 -25.000000
vt 0.000000 0.464285
vt 1.000000 0.464285
vt 0.000000 0.535715
vt 1.000000 0.535715
vn 0.000000 1.000000 0.000000
vn 0.000000 1.000000 0.000000
vn 0.000000 1.000000 0.000000
vn 0.000000 1.000000 0.000000
vn 0.000000 1.000000 0.000000
vn 0.000000 1.000000 0.000000
s off
g runway:pPlane4
usemtl runway:blinn1SG
f 1/1/1 2/2/2 3/3/3
f 3/3/4 2/2/5 4/4/6
