# This file uses centimeters as units for non-parametric coordinates.

mtllib skybox.mtl
g default
v -35000.000000 -35000.000000 35000.000000
v 35000.000000 -35000.000000 35000.000000
v -35000.000000 35000.000000 35000.000000
v 35000.000000 35000.000000 35000.000000
v -35000.000000 35000.000000 -35000.000000
v 35000.000000 35000.000000 -35000.000000
v -35000.000000 -35000.000000 -35000.000000
v 35000.000000 -35000.000000 -35000.000000
vt 0.500718 0.374916
vt 0.499282 0.624069
vt 0.251565 0.373480
vt 0.250129 0.622633
vt 0.002413 0.372044
vt 0.997587 0.626941
vt 0.749871 0.376352
vt 0.748435 0.625505
vt 0.497846 0.873221
vt 0.248693 0.871785
vt 0.502154 0.125763
vt 0.253001 0.124327
vt 0.999023 0.377788
vt 0.000977 0.621196
vn 0.000000 0.000000 -1.000000
vn 0.000000 0.000000 -1.000000
vn 0.000000 0.000000 -1.000000
vn 0.000000 0.000000 -1.000000
vn 0.000000 -1.000000 0.000000
vn 0.000000 -1.000000 0.000000
vn 0.000000 -1.000000 0.000000
vn 0.000000 -1.000000 0.000000
vn 0.000000 0.000000 1.000000
vn 0.000000 0.000000 1.000000
vn 0.000000 0.000000 1.000000
vn 0.000000 0.000000 1.000000
vn 0.000000 1.000000 0.000000
vn 0.000000 1.000000 0.000000
vn 0.000000 1.000000 0.000000
vn 0.000000 1.000000 0.000000
vn -1.000000 0.000000 0.000000
vn -1.000000 0.000000 0.000000
vn -1.000000 0.000000 0.000000
vn -1.000000 0.000000 0.000000
vn 1.000000 0.000000 0.000000
vn 1.000000 0.000000 0.000000
vn 1.000000 0.000000 0.000000
vn 1.000000 0.000000 0.000000
s 1
g pCube1
usemtl blinn2SG
f 1/1/1 3/3/2 2/2/3
f 2/2/3 3/3/2 4/4/4
s 2
f 3/3/5 5/5/6 4/4/7
f 4/4/7 5/5/6 6/14/8
s 3
f 5/13/9 7/7/10 6/6/11
f 6/6/11 7/7/10 8/8/12
s 4
f 7/7/13 1/1/14 8/8/15
f 8/8/15 1/1/14 2/2/16
s 5
f 2/2/17 4/4/18 8/9/19
f 8/9/19 4/4/18 6/10/20
s 6
f 7/11/21 5/12/22 1/1/23
f 1/1/23 5/12/22 3/3/24
