# This file uses centimeters as units for non-parametric coordinates.

mtllib skybox.mtl
g default
v -1000.000000 -1000.000000 1000.000000
v 1000.000000 -1000.000000 1000.000000
v -1000.000000 1000.000000 1000.000000
v 1000.000000 1000.000000 1000.000000
v -1000.000000 1000.000000 -1000.000000
v 1000.000000 1000.000000 -1000.000000
v -1000.000000 -1000.000000 -1000.000000
v 1000.000000 -1000.000000 -1000.000000
vt 0.250000 0.374861
vt 0.500000 0.374861
vt 0.250000 0.625000
vt 0.500000 0.625000
vt 0.250000 0.875000
vt 0.750000 0.625000
vt 1.000000 0.374861
vt 0.500000 0.125000
vt 0.750000 0.374861
vt 0.000000 0.374861
vt 0.000000 0.625000
vt 0.250000 0.125000
vt 1.000000 0.625000
vt 0.500000 0.875000
vn 0.000000 0.000000 -1.000000
vn 0.000000 0.000000 -1.000000
vn 0.000000 0.000000 -1.000000
vn 0.000000 0.000000 -1.000000
vn 0.000000 -1.000000 0.000000
vn 0.000000 -1.000000 0.000000
vn 0.000000 -1.000000 0.000000
vn 0.000000 -1.000000 0.000000
vn 0.000000 0.000000 1.000000
vn 0.000000 0.000000 1.000000
vn 0.000000 0.000000 1.000000
vn 0.000000 0.000000 1.000000
vn 0.000000 1.000000 0.000000
vn 0.000000 1.000000 0.000000
vn 0.000000 1.000000 0.000000
vn 0.000000 1.000000 0.000000
vn -1.000000 0.000000 0.000000
vn -1.000000 0.000000 0.000000
vn -1.000000 0.000000 0.000000
vn -1.000000 0.000000 0.000000
vn 1.000000 0.000000 0.000000
vn 1.000000 0.000000 0.000000
vn 1.000000 0.000000 0.000000
vn 1.000000 0.000000 0.000000
s 1
g pCube1
usemtl initialShadingGroup
f 1/1/1 3/3/2 2/2/3
f 2/2/3 3/3/2 4/4/4
s 2
f 3/3/5 5/5/6 4/4/7
f 4/4/7 5/5/6 6/14/8
s 3
f 5/13/9 7/7/10 6/6/11
f 6/6/11 7/7/10 8/9/12
s 4
f 7/12/13 1/1/14 8/8/15
f 8/8/15 1/1/14 2/2/16
s 5
f 2/2/17 4/4/18 8/9/19
f 8/9/19 4/4/18 6/6/20
s 6
f 7/10/21 5/11/22 1/1/23
f 1/1/23 5/11/22 3/3/24
